<svg xmlns="http://www.w3.org/2000/svg" width="53.065" height="53.16" viewBox="0 0 53.065 53.16">
  <defs>
    <style>
      .cls-1 {
        fill: none;
        stroke: #000;
        stroke-linecap: round;
        stroke-linejoin: round;
        stroke-width: 3px;
      }
    </style>
  </defs>
  <path id="Icon_feather-phone-call" data-name="Icon feather-phone-call" class="cls-1" d="M34.079,11.057a11.946,11.946,0,0,1,9.437,9.437M34.079,1.5A21.5,21.5,0,0,1,53.072,20.47M50.683,39.535V46.7a4.778,4.778,0,0,1-5.208,4.778,47.281,47.281,0,0,1-20.618-7.335A46.588,46.588,0,0,1,10.522,29.811,47.281,47.281,0,0,1,3.187,9.1,4.778,4.778,0,0,1,7.942,3.889h7.167A4.778,4.778,0,0,1,19.887,8a30.676,30.676,0,0,0,1.672,6.713,4.778,4.778,0,0,1-1.075,5.041L17.45,22.787A38.226,38.226,0,0,0,31.785,37.122l3.034-3.034a4.778,4.778,0,0,1,5.041-1.075,30.676,30.676,0,0,0,6.713,1.672A4.778,4.778,0,0,1,50.683,39.535Z" transform="translate(-1.666 0.156)"/>
</svg>
