<?xml version="1.0" encoding="UTF-8"?>
<svg xmlns="http://www.w3.org/2000/svg" xmlns:xlink="http://www.w3.org/1999/xlink" width="46pt" height="46pt" viewBox="0 0 46 46" version="1.1">
<g id="surface1">
<path style=" stroke:none;fill-rule:nonzero;fill:rgb(0%,0%,0%);fill-opacity:1;" d="M 40.25 44.5625 L 40.25 34.054688 L 41.484375 29.429688 C 41.707031 28.585938 41.402344 27.6875 40.707031 27.160156 C 40.011719 26.628906 39.066406 26.570312 38.3125 27.011719 L 36.859375 27.859375 C 36.367188 27.511719 35.835938 27.222656 35.28125 26.992188 L 29.804688 24.804688 C 30.625 23.8125 31.191406 22.636719 31.449219 21.375 L 33.308594 20.445312 C 34.039062 20.082031 34.503906 19.335938 34.5 18.519531 L 34.5 17.96875 C 34.5 16.777344 33.535156 15.8125 32.34375 15.8125 L 31.625 15.8125 L 31.625 14.242188 C 32.484375 13.941406 33.0625 13.128906 33.0625 12.21875 C 33.0625 11.308594 32.484375 10.496094 31.625 10.195312 L 31.625 9.34375 C 31.621094 5.773438 28.726562 2.878906 25.15625 2.875 L 25.023438 2.875 C 24.722656 2.015625 23.910156 1.4375 23 1.4375 C 22.089844 1.4375 21.277344 2.015625 20.976562 2.875 L 20.84375 2.875 C 17.273438 2.878906 14.378906 5.773438 14.375 9.34375 L 14.375 10.195312 C 13.515625 10.496094 12.9375 11.308594 12.9375 12.21875 C 12.9375 13.128906 13.515625 13.941406 14.375 14.242188 L 14.375 15.8125 L 13.65625 15.8125 C 12.464844 15.8125 11.5 16.777344 11.5 17.96875 L 11.5 18.519531 C 11.496094 19.335938 11.960938 20.082031 12.691406 20.445312 L 14.550781 21.375 C 14.808594 22.636719 15.375 23.8125 16.195312 24.804688 L 10.71875 26.996094 C 7.710938 28.1875 5.738281 31.097656 5.75 34.335938 L 5.75 44.5625 Z M 14.375 38.8125 L 22.28125 38.8125 L 22.28125 40.25 L 14.375 40.25 Z M 26.296875 40.25 L 23.71875 40.25 L 23.71875 38.8125 L 27.734375 38.8125 Z M 14.375 41.6875 L 22.28125 41.6875 L 22.28125 43.125 L 14.375 43.125 Z M 23.71875 41.6875 L 25.257812 41.6875 C 25.105469 42.160156 25.125 42.667969 25.3125 43.125 L 23.71875 43.125 Z M 26.59375 42.320312 C 26.59375 42.105469 26.679688 41.898438 26.828125 41.75 L 29.679688 38.898438 C 29.960938 38.621094 30.414062 38.621094 30.695312 38.898438 L 30.820312 39.023438 C 30.953125 39.15625 31.03125 39.339844 31.03125 39.53125 C 31.03125 39.722656 30.953125 39.90625 30.820312 40.039062 L 27.96875 42.890625 C 27.738281 43.121094 27.390625 43.1875 27.089844 43.0625 C 26.789062 42.9375 26.59375 42.644531 26.59375 42.320312 Z M 33.574219 37.160156 C 33.863281 37.300781 34.179688 37.375 34.5 37.375 L 37.707031 37.375 C 38.097656 37.375 38.480469 37.265625 38.8125 37.0625 L 38.8125 40.25 L 32.335938 40.25 C 32.546875 39.683594 32.5 39.054688 32.207031 38.527344 Z M 29.765625 43.125 L 31.203125 41.6875 L 38.8125 41.6875 L 38.8125 43.125 Z M 39.039062 28.253906 C 39.144531 28.1875 39.269531 28.152344 39.398438 28.148438 C 39.554688 28.152344 39.710938 28.207031 39.835938 28.300781 C 40.070312 28.476562 40.171875 28.777344 40.09375 29.058594 L 38.835938 33.78125 L 38.8125 33.78125 L 38.8125 33.867188 L 38.402344 35.402344 C 38.320312 35.71875 38.035156 35.9375 37.707031 35.9375 L 34.5 35.9375 C 34.101562 35.9375 33.78125 35.617188 33.78125 35.21875 L 33.78125 31.730469 C 33.78125 31.476562 33.917969 31.242188 34.136719 31.109375 Z M 35.464844 28.671875 L 33.414062 29.871094 C 32.753906 30.257812 32.34375 30.964844 32.34375 31.730469 L 32.34375 35.21875 C 32.34375 35.539062 32.417969 35.855469 32.558594 36.144531 L 31.191406 37.511719 C 30.660156 37.230469 30.035156 37.183594 29.46875 37.382812 L 29.46875 37.375 L 23.71875 37.375 L 23.71875 35.613281 C 26.996094 33.546875 29.109375 30.058594 29.421875 26.199219 L 34.746094 28.328125 C 34.992188 28.429688 35.234375 28.542969 35.464844 28.671875 Z M 27.148438 29.46875 L 18.851562 29.46875 C 18.4375 28.507812 18.167969 27.488281 18.046875 26.449219 L 18.371094 26.65625 C 21.195312 28.445312 24.800781 28.445312 27.628906 26.65625 L 27.953125 26.449219 C 27.832031 27.488281 27.5625 28.507812 27.148438 29.46875 Z M 26.40625 30.90625 C 25.546875 32.300781 24.382812 33.484375 23 34.371094 C 21.617188 33.484375 20.453125 32.300781 19.59375 30.90625 Z M 32.34375 17.25 C 32.742188 17.25 33.0625 17.570312 33.0625 17.96875 L 33.0625 18.519531 C 33.0625 18.789062 32.910156 19.039062 32.664062 19.160156 L 31.625 19.679688 L 31.625 17.25 Z M 20.84375 4.3125 L 20.84375 7.90625 L 22.28125 7.90625 L 22.28125 3.59375 C 22.28125 3.195312 22.601562 2.875 23 2.875 C 23.398438 2.875 23.71875 3.195312 23.71875 3.59375 L 23.71875 7.90625 L 25.15625 7.90625 L 25.15625 4.3125 C 27.933594 4.316406 30.183594 6.566406 30.1875 9.34375 L 30.1875 10.0625 L 15.8125 10.0625 L 15.8125 9.34375 C 15.816406 6.566406 18.066406 4.316406 20.84375 4.3125 Z M 15.09375 11.5 L 30.90625 11.5 C 31.304688 11.5 31.625 11.820312 31.625 12.21875 C 31.625 12.617188 31.304688 12.9375 30.90625 12.9375 L 15.09375 12.9375 C 14.695312 12.9375 14.375 12.617188 14.375 12.21875 C 14.375 11.820312 14.695312 11.5 15.09375 11.5 Z M 12.9375 18.519531 L 12.9375 17.96875 C 12.9375 17.570312 13.257812 17.25 13.65625 17.25 L 14.375 17.25 L 14.375 19.679688 L 13.335938 19.160156 C 13.089844 19.039062 12.9375 18.789062 12.9375 18.519531 Z M 15.8125 14.375 L 30.1875 14.375 L 30.1875 19.773438 C 30.191406 21.984375 29.0625 24.046875 27.191406 25.230469 L 26.859375 25.441406 C 24.503906 26.933594 21.496094 26.933594 19.140625 25.441406 L 18.808594 25.230469 C 16.9375 24.046875 15.808594 21.988281 15.8125 19.773438 Z M 11.253906 28.328125 L 16.578125 26.199219 C 16.890625 30.058594 19.003906 33.546875 22.28125 35.613281 L 22.28125 37.375 L 14.375 37.375 L 14.375 36.65625 C 14.371094 33.378906 11.917969 30.625 8.664062 30.234375 C 9.351562 29.390625 10.242188 28.734375 11.253906 28.328125 Z M 7.1875 34.335938 C 7.1875 33.398438 7.390625 32.476562 7.785156 31.625 L 7.90625 31.625 C 10.683594 31.628906 12.933594 33.878906 12.9375 36.65625 L 12.9375 43.125 L 7.1875 43.125 Z M 7.1875 34.335938 "/>
</g>
</svg>
