<?xml version="1.0" encoding="UTF-8"?>
<svg xmlns="http://www.w3.org/2000/svg" xmlns:xlink="http://www.w3.org/1999/xlink" width="48pt" height="48pt" viewBox="0 0 48 48" version="1.1">
<g id="surface1">
<path style=" stroke:none;fill-rule:nonzero;fill:rgb(0%,0%,0%);fill-opacity:1;" d="M 44.808594 24.621094 C 44.613281 24.226562 44.613281 23.773438 44.808594 23.378906 L 46.597656 19.714844 C 47.59375 17.675781 46.804688 15.246094 44.800781 14.183594 L 41.199219 12.273438 C 40.8125 12.066406 40.542969 11.699219 40.46875 11.265625 L 39.765625 7.25 C 39.371094 5.015625 37.304688 3.511719 35.058594 3.832031 L 31.019531 4.402344 C 30.585938 4.464844 30.15625 4.324219 29.839844 4.019531 L 26.910156 1.183594 C 25.277344 -0.394531 22.722656 -0.394531 21.089844 1.183594 L 18.160156 4.019531 C 17.84375 4.324219 17.414062 4.464844 16.980469 4.402344 L 12.941406 3.832031 C 10.695312 3.511719 8.628906 5.015625 8.234375 7.25 L 7.53125 11.265625 C 7.457031 11.699219 7.1875 12.066406 6.800781 12.273438 L 3.199219 14.183594 C 1.195312 15.246094 0.40625 17.675781 1.402344 19.714844 L 3.191406 23.378906 C 3.386719 23.773438 3.386719 24.226562 3.191406 24.621094 L 1.402344 28.285156 C 0.40625 30.324219 1.195312 32.753906 3.199219 33.816406 L 6.800781 35.726562 C 7.1875 35.933594 7.457031 36.300781 7.53125 36.734375 L 8.234375 40.75 C 8.59375 42.785156 10.335938 44.210938 12.34375 44.210938 C 12.539062 44.210938 12.742188 44.199219 12.941406 44.167969 L 16.980469 43.597656 C 17.414062 43.535156 17.84375 43.675781 18.160156 43.980469 L 21.089844 46.816406 C 21.90625 47.605469 22.953125 48 24 48 C 25.046875 48 26.09375 47.605469 26.910156 46.816406 L 29.839844 43.980469 C 30.15625 43.675781 30.585938 43.535156 31.019531 43.597656 L 35.058594 44.167969 C 37.304688 44.488281 39.371094 42.984375 39.765625 40.75 L 40.46875 36.734375 C 40.546875 36.300781 40.8125 35.933594 41.199219 35.726562 L 44.800781 33.816406 C 46.804688 32.753906 47.59375 30.324219 46.597656 28.285156 Z M 43.503906 31.371094 L 39.902344 33.28125 C 38.753906 33.890625 37.964844 34.976562 37.742188 36.253906 L 37.039062 40.269531 C 36.90625 41.027344 36.207031 41.535156 35.445312 41.425781 L 31.410156 40.855469 C 30.121094 40.675781 28.847656 41.089844 27.914062 41.992188 L 24.984375 44.828125 C 24.433594 45.359375 23.566406 45.359375 23.015625 44.828125 L 20.085938 41.992188 C 19.296875 41.226562 18.265625 40.816406 17.1875 40.816406 C 16.988281 40.816406 16.789062 40.828125 16.589844 40.855469 L 12.554688 41.425781 C 11.792969 41.535156 11.09375 41.027344 10.960938 40.269531 L 10.257812 36.253906 C 10.035156 34.976562 9.246094 33.890625 8.097656 33.28125 L 4.496094 31.371094 C 3.820312 31.011719 3.550781 30.191406 3.886719 29.5 L 5.679688 25.835938 C 6.25 24.667969 6.25 23.332031 5.679688 22.164062 L 3.886719 18.5 C 3.550781 17.808594 3.820312 16.988281 4.496094 16.628906 L 8.097656 14.71875 C 9.246094 14.109375 10.035156 13.023438 10.257812 11.746094 L 10.960938 7.730469 C 11.09375 6.972656 11.792969 6.464844 12.554688 6.574219 L 16.589844 7.144531 C 17.878906 7.324219 19.152344 6.910156 20.085938 6.007812 L 23.015625 3.171875 C 23.566406 2.640625 24.433594 2.640625 24.984375 3.171875 L 27.914062 6.007812 C 28.847656 6.910156 30.121094 7.324219 31.410156 7.144531 L 35.445312 6.574219 C 36.207031 6.464844 36.90625 6.972656 37.039062 7.730469 L 37.742188 11.746094 C 37.964844 13.023438 38.753906 14.109375 39.902344 14.71875 L 43.503906 16.628906 C 44.179688 16.988281 44.449219 17.808594 44.109375 18.5 L 42.320312 22.164062 C 41.75 23.332031 41.75 24.667969 42.320312 25.835938 L 44.109375 29.5 C 44.449219 30.191406 44.179688 31.011719 43.503906 31.371094 Z M 43.503906 31.371094 "/>
<path style=" stroke:none;fill-rule:nonzero;fill:rgb(0%,0%,0%);fill-opacity:1;" d="M 34.113281 13.886719 C 33.574219 13.34375 32.695312 13.34375 32.15625 13.886719 L 13.886719 32.15625 C 13.34375 32.695312 13.34375 33.574219 13.886719 34.113281 C 14.15625 34.382812 14.511719 34.519531 14.863281 34.519531 C 15.21875 34.519531 15.574219 34.382812 15.84375 34.113281 L 34.113281 15.84375 C 34.65625 15.304688 34.65625 14.425781 34.113281 13.886719 Z M 34.113281 13.886719 "/>
<path style=" stroke:none;fill-rule:nonzero;fill:rgb(0%,0%,0%);fill-opacity:1;" d="M 18.464844 11.542969 C 15.664062 11.542969 13.386719 13.820312 13.386719 16.617188 C 13.386719 19.417969 15.664062 21.691406 18.464844 21.691406 C 21.261719 21.691406 23.539062 19.417969 23.539062 16.617188 C 23.539062 13.820312 21.261719 11.542969 18.464844 11.542969 Z M 18.464844 18.925781 C 17.191406 18.925781 16.15625 17.890625 16.15625 16.617188 C 16.15625 15.34375 17.191406 14.308594 18.464844 14.308594 C 19.734375 14.308594 20.769531 15.34375 20.769531 16.617188 C 20.769531 17.890625 19.734375 18.925781 18.464844 18.925781 Z M 18.464844 18.925781 "/>
<path style=" stroke:none;fill-rule:nonzero;fill:rgb(0%,0%,0%);fill-opacity:1;" d="M 29.535156 26.308594 C 26.738281 26.308594 24.460938 28.582031 24.460938 31.382812 C 24.460938 34.179688 26.738281 36.457031 29.535156 36.457031 C 32.335938 36.457031 34.613281 34.179688 34.613281 31.382812 C 34.613281 28.582031 32.335938 26.308594 29.535156 26.308594 Z M 29.535156 33.691406 C 28.265625 33.691406 27.230469 32.65625 27.230469 31.382812 C 27.230469 30.109375 28.265625 29.074219 29.535156 29.074219 C 30.808594 29.074219 31.84375 30.109375 31.84375 31.382812 C 31.84375 32.65625 30.808594 33.691406 29.535156 33.691406 Z M 29.535156 33.691406 "/>
</g>
</svg>
