<svg id="icon-discount" xmlns="http://www.w3.org/2000/svg" width="46" height="48" viewBox="0 0 46 48">
  <defs>
    <style>
      .cls-1 {
        fill: #231f20;
      }
    </style>
  </defs>
  <path id="Path_11" data-name="Path 11" class="cls-1" d="M44.756,24.621a1.392,1.392,0,0,1,0-1.242l1.787-3.664a4.168,4.168,0,0,0-1.795-5.531l-3.6-1.91a1.41,1.41,0,0,1-.73-1.008l-.7-4.016a4.162,4.162,0,0,0-4.7-3.418l-4.034.57A1.4,1.4,0,0,1,29.8,4.02L26.879,1.184a4.161,4.161,0,0,0-5.813,0L18.139,4.02a1.4,1.4,0,0,1-1.178.383l-4.034-.57a4.162,4.162,0,0,0-4.7,3.418l-.7,4.016a1.41,1.41,0,0,1-.73,1.008l-3.6,1.91A4.168,4.168,0,0,0,1.4,19.715l1.787,3.664a1.392,1.392,0,0,1,0,1.242L1.4,28.285A4.168,4.168,0,0,0,3.2,33.816l3.6,1.91a1.41,1.41,0,0,1,.73,1.008l.7,4.016a4.162,4.162,0,0,0,4.1,3.461,3.876,3.876,0,0,0,.6-.043l4.034-.57a1.4,1.4,0,0,1,1.178.383l2.926,2.836a4.161,4.161,0,0,0,5.813,0L29.8,43.98a1.4,1.4,0,0,1,1.178-.383l4.034.57a4.162,4.162,0,0,0,4.7-3.418l.7-4.016a1.42,1.42,0,0,1,.73-1.008l3.6-1.91a4.168,4.168,0,0,0,1.795-5.531Zm-1.3,6.75-3.6,1.91A4.156,4.156,0,0,0,37.7,36.254L37,40.27A1.406,1.406,0,0,1,35.4,41.426l-4.03-.57a4.161,4.161,0,0,0-3.492,1.137l-2.926,2.836a1.412,1.412,0,0,1-1.966,0l-2.926-2.836a4.132,4.132,0,0,0-2.895-1.176,4.369,4.369,0,0,0-.6.039l-4.03.57a1.406,1.406,0,0,1-1.592-1.156l-.7-4.016a4.156,4.156,0,0,0-2.158-2.973l-3.6-1.91A1.413,1.413,0,0,1,3.883,29.5l1.791-3.664a4.158,4.158,0,0,0,0-3.672L3.883,18.5a1.413,1.413,0,0,1,.609-1.871l3.6-1.91a4.156,4.156,0,0,0,2.158-2.973l.7-4.016a1.406,1.406,0,0,1,1.592-1.156l4.03.57a4.161,4.161,0,0,0,3.492-1.137l2.926-2.836a1.412,1.412,0,0,1,1.966,0l2.926,2.836a4.161,4.161,0,0,0,3.492,1.137l4.03-.57A1.406,1.406,0,0,1,37,7.73l.7,4.016a4.157,4.157,0,0,0,2.157,2.973l3.6,1.91a1.408,1.408,0,0,1,.6,1.871L42.27,22.164a4.158,4.158,0,0,0,0,3.672L44.057,29.5A1.408,1.408,0,0,1,43.452,31.371Zm0,0" transform="translate(-0.972 0)"/>
  <path id="Path_12" data-name="Path 12" class="cls-1" d="M34.113,13.887a1.379,1.379,0,0,0-1.957,0l-18.27,18.27a1.384,1.384,0,1,0,1.957,1.957l18.27-18.27A1.379,1.379,0,0,0,34.113,13.887Zm0,0" transform="translate(-1 0)"/>
  <path id="Path_13" data-name="Path 13" class="cls-1" d="M18.465,11.543a5.074,5.074,0,1,0,5.074,5.074A5.082,5.082,0,0,0,18.465,11.543Zm0,7.383a2.309,2.309,0,1,1,2.3-2.309A2.311,2.311,0,0,1,18.465,18.926Zm0,0" transform="translate(-0.991 0)"/>
  <path id="Path_14" data-name="Path 14" class="cls-1" d="M29.535,26.309a5.074,5.074,0,1,0,5.078,5.074A5.079,5.079,0,0,0,29.535,26.309Zm0,7.383a2.309,2.309,0,1,1,2.309-2.309A2.31,2.31,0,0,1,29.535,33.691Zm0,0" transform="translate(-1.009 0)"/>
</svg>
