<?xml version="1.0" encoding="UTF-8"?>
<svg xmlns="http://www.w3.org/2000/svg" xmlns:xlink="http://www.w3.org/1999/xlink" width="30pt" height="30pt" viewBox="0 0 30 30" version="1.1">
<g id="surface1">
<path style=" stroke:none;fill-rule:nonzero;fill:rgb(0%,0%,0%);fill-opacity:1;" d="M 27.363281 3.574219 L 2.636719 3.574219 C 1.183594 3.574219 0 4.757812 0 6.210938 L 0 23.789062 C 0 25.238281 1.179688 26.425781 2.636719 26.425781 L 27.363281 26.425781 C 28.8125 26.425781 30 25.246094 30 23.789062 L 30 6.210938 C 30 4.761719 28.820312 3.574219 27.363281 3.574219 Z M 27 5.332031 L 15.054688 17.273438 L 3.007812 5.332031 Z M 1.757812 23.425781 L 1.757812 6.566406 L 10.222656 14.960938 Z M 3 24.667969 L 11.472656 16.195312 L 14.441406 19.140625 C 14.785156 19.480469 15.339844 19.480469 15.679688 19.136719 L 18.574219 16.242188 L 27 24.667969 Z M 28.242188 23.425781 L 19.816406 15 L 28.242188 6.574219 Z M 28.242188 23.425781 "/>
</g>
</svg>
