<svg id="icon-free-ship" xmlns="http://www.w3.org/2000/svg" width="46" height="38" viewBox="0 0 46 38">
  <defs>
    <style>
      .cls-1 {
        fill: #231f20;
      }
    </style>
  </defs>
  <path id="Path_15" data-name="Path 15" class="cls-1" d="M46,25.868l-4.288-7.426H31.625V28.507H29.219V10.9H26.993a4.956,4.956,0,0,0-.264-4.373A4.187,4.187,0,0,0,24.1,4.5a3.884,3.884,0,0,0-3.165.6,7.129,7.129,0,0,0-1.962,2.568A7.128,7.128,0,0,0,17.01,5.1a3.9,3.9,0,0,0-3.17-.6,4.191,4.191,0,0,0-2.625,2.023,4.956,4.956,0,0,0-.265,4.373H8.72V28.507H0v8.68H2.81c0,.049,0,.1,0,.147a4.862,4.862,0,0,0,4.632,5.054,4.857,4.857,0,0,0,4.622-5.054v-.147H33.941v.147a4.857,4.857,0,0,0,4.622,5.054,4.862,4.862,0,0,0,4.632-5.054c0-.049,0-.1,0-.147H46ZM26.524,13.84V28.507h-3.7V13.84ZM22.376,7.587a1.4,1.4,0,0,1,.8-.256,1.366,1.366,0,0,1,.329.044,1.492,1.492,0,0,1,.943.725,1.747,1.747,0,0,1,.23.872,1.675,1.675,0,0,1-.7,1.39,10.048,10.048,0,0,1-3.464.518c-.015-.033-.03-.071-.045-.1A12.129,12.129,0,0,1,22.376,7.587ZM17.819,13.84h2.306V28.507H17.819ZM13.492,8.1a1.492,1.492,0,0,1,.943-.725,1.381,1.381,0,0,1,1.133.213,12.125,12.125,0,0,1,1.9,3.19c-.015.038-.03.071-.045.1a10.111,10.111,0,0,1-3.469-.518A1.733,1.733,0,0,1,13.492,8.1ZM11.415,13.84h3.709V28.507H11.415Zm-3.978,25.6A2.032,2.032,0,0,1,5.5,37.334a1.458,1.458,0,0,1,.01-.147,2.008,2.008,0,0,1,1.927-1.963,2.007,2.007,0,0,1,1.922,1.963,1.45,1.45,0,0,1,0,.147A2.028,2.028,0,0,1,7.437,39.444Zm24.188-5.2H11.091A4.488,4.488,0,0,0,7.437,32.28a4.49,4.49,0,0,0-3.659,1.963H2.7V31.451h28.93Zm6.938,5.2a2.028,2.028,0,0,1-1.927-2.11,1.454,1.454,0,0,1,0-.147,1.925,1.925,0,1,1,3.848,0,1.461,1.461,0,0,1,.01.147A2.032,2.032,0,0,1,38.563,39.444Zm4.742-5.2H42.222a4.387,4.387,0,0,0-7.312,0H34.32V29.287h6.164V26.342H34.32V21.386h5.9l3.08,5.332Zm0,0" transform="translate(0 -4.388)"/>
  <path id="Path_16" data-name="Path 16" class="cls-1" d="M1.055,10.941H4.711v2.109H1.055Zm0,0" transform="translate(0 -1.778)"/>
  <path id="Path_17" data-name="Path 17" class="cls-1" d="M0,14.457H4.711v2.109H0Zm0,0" transform="translate(0 -0.377)"/>
  <path id="Path_18" data-name="Path 18" class="cls-1" d="M1.055,17.973H4.711v2.109H1.055Zm0,0" transform="translate(0 1.023)"/>
</svg>
