<svg xmlns="http://www.w3.org/2000/svg" width="48" height="48" viewBox="0 0 48 48">
  <defs>
    <style>
      .cls-1 {
        fill: #231f20;
        opacity: 0.8;
      }
    </style>
  </defs>
  <path id="header-instagram" class="cls-1" d="M24.005,11.693A12.307,12.307,0,1,0,36.309,24,12.286,12.286,0,0,0,24.005,11.693Zm0,20.307a8,8,0,1,1,8-8,8.015,8.015,0,0,1-8,8ZM39.682,11.19a2.87,2.87,0,1,1-2.87-2.87A2.863,2.863,0,0,1,39.682,11.19ZM47.831,14.1c-.182-3.845-1.06-7.251-3.876-10.057S37.744.361,33.9.169c-3.962-.225-15.838-.225-19.8,0C10.267.351,6.861,1.229,4.045,4.035S.361,10.247.169,14.093c-.225,3.963-.225,15.841,0,19.8.182,3.845,1.06,7.251,3.876,10.057s6.211,3.684,10.055,3.877c3.962.225,15.838.225,19.8,0,3.844-.182,7.25-1.06,10.055-3.877s3.684-6.212,3.876-10.057c.225-3.963.225-15.83,0-19.793ZM42.713,38.149a8.1,8.1,0,0,1-4.562,4.563c-3.159,1.253-10.655.964-14.146.964s-11,.278-14.146-.964A8.1,8.1,0,0,1,5.3,38.149C4.045,34.989,4.334,27.492,4.334,24S4.056,13,5.3,9.851A8.1,8.1,0,0,1,9.86,5.288c3.159-1.253,10.655-.964,14.146-.964s11-.278,14.146.964a8.1,8.1,0,0,1,4.562,4.563c1.253,3.16.964,10.657.964,14.149S43.966,35,42.713,38.149Z"/>
</svg>
