<svg xmlns="http://www.w3.org/2000/svg" width="170" height="58" viewBox="0 0 170 58">
  <defs>
    <style>
      .cls-1, .cls-2 {
        fill: #ff6b00;
      }

      .cls-1 {
        font-size: 42px;
		font-family: Adamina, 'Adamina';
      }
    </style>
  </defs>
  <g id="mob-logo-header" transform="translate(-377 -69)">
    <text id="OKnov" class="cls-1" transform="translate(377 116)"><tspan x="0" y="0">OKnov</tspan></text>
    <g id="butterfly" transform="translate(502.262 69)">
      <path id="Path_30" data-name="Path 30" class="cls-2" d="M2.848,0c-.961,0-1.34.723-1.34,2.047,0,1.6,1.895,2.5,1.879,2.488.016.016-.652-.227-1.168-.418a2.2,2.2,0,0,0-1.125,1.09s-.648,1.3.793,1.336C3.328,6.543,4,4.719,4.2,4.109,5.5.27,2.848,0,2.848,0Zm0,0" transform="translate(-0.948)"/>
      <path id="Path_31" data-name="Path 31" class="cls-2" d="M6.488,1.844c-.781-.2-1.809,1.793-2.031,2.23s-1.191,2.063-.5,2.246C4.617,6.426,5.129,5.273,5.2,4.5,6.652,3.152,6.844,1.934,6.488,1.844Zm0,0" transform="translate(-0.948)"/>
    </g>
    <g id="window" transform="translate(503.34 73)">
      <path id="Path_24" data-name="Path 24" d="M42.734,40.1h-.449V24.883a.637.637,0,0,0-1.273,0V40.1H38.84V4.082a.634.634,0,0,0-.59-.637h-.02c-.008,0-.02,0-.027,0H6.438a.138.138,0,0,1-.023,0H6.387a.306.306,0,0,0-.055.008.024.024,0,0,0-.016,0,.454.454,0,0,0-.07.016h0c-.023.008-.043.02-.066.027-.008,0-.008,0-.016.008a.391.391,0,0,0-.055.031,0,0,0,0,0,0,0s0,0-.008,0a.323.323,0,0,0-.059.043,0,0,0,0,0,0,0,.269.269,0,0,0-.051.043c-.008.008-.008.012-.02.02a.237.237,0,0,1-.027.039l-.016.016c-.012.023-.023.039-.035.059a0,0,0,0,0,0,0c-.008.023-.02.043-.027.066,0,0-.008.012-.008.012a.344.344,0,0,1-.02.059.169.169,0,0,1,0,.02c0,.016,0,.035-.008.055S5.8,4,5.8,4V40.1H3.633V24.883a.639.639,0,0,0-1.277,0V40.1H1.91A1.415,1.415,0,0,0,.492,41.516v1.711A1.418,1.418,0,0,0,1.91,44.645H42.734a1.42,1.42,0,0,0,1.418-1.418V41.516A1.418,1.418,0,0,0,42.734,40.1ZM37.566,5.082V40.1h-.855l-7.988-2.988V9.281Zm-2.187-.367L28.113,8.16a1.129,1.129,0,0,0-.66,1.008V37.227a1.13,1.13,0,0,0,.762,1.051l4.871,1.82H11.555l4.871-1.82a1.134,1.134,0,0,0,.766-1.051V9.168a1.133,1.133,0,0,0-.664-1.008L9.258,4.715Zm-28.3.367,8.844,4.2V37.109L7.926,40.1H7.074Zm35.66,38.293H1.91a.148.148,0,0,1-.148-.148V41.516a.148.148,0,0,1,.148-.148H42.734a.148.148,0,0,1,.148.148v1.711A.148.148,0,0,1,42.734,43.375Zm0,0" transform="translate(-0.492)"/>
      <path id="Path_25" data-name="Path 25" d="M40.637,0H4A1.647,1.647,0,0,0,2.355,1.641V21.828a.639.639,0,0,0,1.277,0V1.641A.371.371,0,0,1,4,1.27H40.637a.374.374,0,0,1,.375.371V21.859a.637.637,0,0,0,1.273,0V1.641A1.647,1.647,0,0,0,40.637,0Zm0,0" transform="translate(-0.492)"/>
      <path id="Path_26" data-name="Path 26" d="M35.5,8.113a.818.818,0,0,0-.344.078L30.715,10.41a.733.733,0,0,0-.406.656V21.715a.768.768,0,0,0,.773.75l4.43.027h0a.757.757,0,0,0,.766-.742V8.867A.772.772,0,0,0,35.5,8.113Zm-.484,13.106L31.578,21.2V11.4l3.434-1.719Zm0,0" transform="translate(-0.492)"/>
      <path id="Path_27" data-name="Path 27" d="M35.508,23.391l-4.434.043a.769.769,0,0,0-.766.75V35.375a.733.733,0,0,0,.469.684l4.434,1.758a.726.726,0,0,0,.285.055.772.772,0,0,0,.785-.758V24.133A.757.757,0,0,0,35.508,23.391Zm-.5,12.981L31.578,35V24.7l3.434-.035Zm0,0" transform="translate(-0.492)"/>
      <path id="Path_28" data-name="Path 28" d="M13.563,23.434l-4.437-.043a.755.755,0,0,0-.766.742V37.113a.771.771,0,0,0,.781.758.7.7,0,0,0,.285-.055l4.438-1.758a.739.739,0,0,0,.473-.684V24.184A.771.771,0,0,0,13.563,23.434ZM13.063,35,9.629,36.371V24.664l3.434.035Zm0,0" transform="translate(-0.492)"/>
      <path id="Path_29" data-name="Path 29" d="M13.922,10.41,9.488,8.191a.8.8,0,0,0-.348-.078.771.771,0,0,0-.781.754V21.75a.757.757,0,0,0,.766.742h0l4.43-.027a.768.768,0,0,0,.773-.75V11.066A.72.72,0,0,0,13.922,10.41ZM13.063,21.2l-3.434.024V9.684L13.063,11.4Zm0,0" transform="translate(-0.492)"/>
    </g>
  </g>
</svg>
