<svg xmlns="http://www.w3.org/2000/svg" width="63.015" height="48" viewBox="0 0 63.015 48">
  <defs>
    <style>
      .cls-1 {
        opacity: 0.8;
      }

      .cls-2 {
        fill: #231f20;
      }
    </style>
  </defs>
  <g id="mail" class="cls-1" transform="translate(0 -3.574)">
    <path id="Path_35" data-name="Path 35" class="cls-2" d="M57.477,3.574H5.538A5.547,5.547,0,0,0,0,9.113V46.036a5.547,5.547,0,0,0,5.538,5.538H57.477a5.547,5.547,0,0,0,5.538-5.538V9.113A5.547,5.547,0,0,0,57.477,3.574Zm-.763,3.692L31.623,32.349,6.318,7.267ZM3.692,45.273V9.859L21.473,27.492ZM6.3,47.882l17.8-17.8,6.236,6.187a1.84,1.84,0,0,0,2.6-.008l6.08-6.08,17.7,17.7Zm53.022-2.609-17.7-17.7,17.7-17.7Zm0,0"/>
  </g>
</svg>
