<?xml version="1.0" encoding="UTF-8"?>
<svg xmlns="http://www.w3.org/2000/svg" xmlns:xlink="http://www.w3.org/1999/xlink" width="36pt" height="36pt" viewBox="0 0 36 36" version="1.1">
<g id="surface1">
<path style=" stroke:none;fill-rule:nonzero;fill:rgb(0%,0%,0%);fill-opacity:1;" d="M 36 19.777344 L 32.644531 14.457031 L 24.75 14.457031 L 24.75 21.667969 L 22.867188 21.667969 L 22.867188 9.050781 L 21.125 9.050781 C 21.574219 8.074219 21.535156 6.890625 20.917969 5.917969 C 20.449219 5.175781 19.71875 4.660156 18.859375 4.46875 C 18.003906 4.277344 17.125 4.429688 16.382812 4.898438 C 16.074219 5.097656 15.59375 5.5 14.847656 6.738281 C 14.101562 5.5 13.621094 5.097656 13.3125 4.898438 C 12.570312 4.429688 11.6875 4.277344 10.832031 4.46875 C 9.976562 4.660156 9.246094 5.175781 8.777344 5.917969 C 8.160156 6.890625 8.121094 8.074219 8.570312 9.050781 L 6.824219 9.050781 L 6.824219 21.667969 L 0 21.667969 L 0 27.886719 L 2.199219 27.886719 C 2.199219 27.921875 2.195312 27.957031 2.195312 27.992188 C 2.195312 29.988281 3.820312 31.613281 5.820312 31.613281 C 7.816406 31.613281 9.4375 29.988281 9.4375 27.992188 C 9.4375 27.957031 9.4375 27.921875 9.4375 27.886719 L 26.5625 27.886719 C 26.5625 27.921875 26.5625 27.957031 26.5625 27.992188 C 26.5625 29.988281 28.183594 31.613281 30.179688 31.613281 C 32.179688 31.613281 33.804688 29.988281 33.804688 27.992188 C 33.804688 27.957031 33.800781 27.921875 33.800781 27.886719 L 36 27.886719 Z M 20.757812 11.160156 L 20.757812 21.667969 L 17.859375 21.667969 L 17.859375 11.160156 Z M 17.511719 6.679688 C 17.703125 6.558594 17.917969 6.496094 18.140625 6.496094 C 18.226562 6.496094 18.3125 6.507812 18.398438 6.527344 C 18.707031 6.59375 18.96875 6.78125 19.136719 7.046875 C 19.257812 7.238281 19.316406 7.457031 19.316406 7.671875 C 19.316406 8.0625 19.125 8.445312 18.769531 8.667969 C 18.476562 8.851562 17.367188 8.992188 16.058594 9.039062 C 16.046875 9.015625 16.035156 8.988281 16.023438 8.964844 C 16.625 7.804688 17.222656 6.867188 17.511719 6.679688 Z M 13.945312 11.160156 L 15.75 11.160156 L 15.75 21.667969 L 13.945312 21.667969 Z M 10.558594 7.046875 C 10.726562 6.78125 10.988281 6.59375 11.296875 6.527344 C 11.601562 6.457031 11.917969 6.511719 12.183594 6.679688 C 12.472656 6.867188 13.070312 7.804688 13.671875 8.964844 C 13.660156 8.992188 13.648438 9.015625 13.636719 9.039062 C 12.328125 8.992188 11.21875 8.851562 10.921875 8.667969 C 10.375 8.320312 10.210938 7.59375 10.558594 7.046875 Z M 8.933594 11.160156 L 11.835938 11.160156 L 11.835938 21.667969 L 8.933594 21.667969 Z M 5.820312 29.503906 C 4.984375 29.503906 4.304688 28.824219 4.304688 27.992188 C 4.304688 27.957031 4.308594 27.921875 4.3125 27.886719 C 4.363281 27.101562 5.019531 26.480469 5.820312 26.480469 C 6.617188 26.480469 7.273438 27.101562 7.324219 27.886719 C 7.328125 27.921875 7.328125 27.957031 7.328125 27.992188 C 7.328125 28.824219 6.652344 29.503906 5.820312 29.503906 Z M 24.75 25.777344 L 8.679688 25.777344 C 8.019531 24.921875 6.980469 24.371094 5.820312 24.371094 C 4.65625 24.371094 3.617188 24.921875 2.957031 25.777344 L 2.109375 25.777344 L 2.109375 23.777344 L 24.75 23.777344 Z M 30.179688 29.503906 C 29.347656 29.503906 28.671875 28.824219 28.671875 27.992188 C 28.671875 27.957031 28.671875 27.921875 28.675781 27.886719 C 28.726562 27.101562 29.382812 26.480469 30.179688 26.480469 C 30.980469 26.480469 31.636719 27.101562 31.6875 27.886719 C 31.691406 27.921875 31.695312 27.957031 31.695312 27.992188 C 31.695312 28.824219 31.015625 29.503906 30.179688 29.503906 Z M 33.890625 25.777344 L 33.042969 25.777344 C 32.382812 24.921875 31.34375 24.371094 30.179688 24.371094 C 29.019531 24.371094 27.980469 24.921875 27.320312 25.777344 L 26.859375 25.777344 L 26.859375 22.226562 L 31.683594 22.226562 L 31.683594 20.117188 L 26.859375 20.117188 L 26.859375 16.566406 L 31.480469 16.566406 L 33.890625 20.386719 Z M 33.890625 25.777344 "/>
<path style=" stroke:none;fill-rule:nonzero;fill:rgb(0%,0%,0%);fill-opacity:1;" d="M 1.054688 10.941406 L 4.710938 10.941406 L 4.710938 13.050781 L 1.054688 13.050781 Z M 1.054688 10.941406 "/>
<path style=" stroke:none;fill-rule:nonzero;fill:rgb(0%,0%,0%);fill-opacity:1;" d="M 0 14.457031 L 4.710938 14.457031 L 4.710938 16.566406 L 0 16.566406 Z M 0 14.457031 "/>
<path style=" stroke:none;fill-rule:nonzero;fill:rgb(0%,0%,0%);fill-opacity:1;" d="M 1.054688 17.972656 L 4.710938 17.972656 L 4.710938 20.082031 L 1.054688 20.082031 Z M 1.054688 17.972656 "/>
</g>
</svg>
