<svg id="icon-worker" xmlns="http://www.w3.org/2000/svg" width="46" height="54" viewBox="0 0 46 54">
  <defs>
    <style>
      .cls-1 {
        fill: #231f20;
      }
    </style>
  </defs>
  <path id="Path_19" data-name="Path 19" class="cls-1" d="M50.072,55.438V42.28l1.586-5.791a2.665,2.665,0,0,0-1-2.842,2.823,2.823,0,0,0-3.076-.186l-1.867,1.061a10.575,10.575,0,0,0-2.027-1.086L36.653,30.7A9.725,9.725,0,0,0,38.766,26.4l2.389-1.164a2.677,2.677,0,0,0,1.531-2.411v-.69a2.735,2.735,0,0,0-2.77-2.7h-.923V17.471a2.661,2.661,0,0,0,0-5.067V11.337a8.217,8.217,0,0,0-8.31-8.1H30.51a2.777,2.777,0,0,0-5.2,0h-.171a8.217,8.217,0,0,0-8.31,8.1V12.4a2.661,2.661,0,0,0,0,5.067v1.966h-.923a2.735,2.735,0,0,0-2.77,2.7v.69a2.677,2.677,0,0,0,1.531,2.411L17.056,26.4A9.725,9.725,0,0,0,19.169,30.7l-7.036,2.744A9.851,9.851,0,0,0,5.75,42.632V55.438Zm-33.241-7.2H26.988v1.8H16.83Zm15.316,1.8H28.834v-1.8h5.159Zm-15.316,1.8H26.988v1.8H16.83Zm12,0h1.977a2.557,2.557,0,0,0,.07,1.8H28.834Zm3.693.792a1,1,0,0,1,.3-.714l3.663-3.571a.947.947,0,0,1,1.3,0l.161.157a.881.881,0,0,1,0,1.272l-3.663,3.571a1.055,1.055,0,0,1-1.129.215A1.007,1.007,0,0,1,32.528,52.63ZM41.5,46.169a2.779,2.779,0,0,0,1.189.269H46.8a2.777,2.777,0,0,0,1.42-.391v3.991H39.9a2.525,2.525,0,0,0-.166-2.157ZM36.6,53.637l1.847-1.8h9.776v1.8ZM48.516,35.016a.935.935,0,0,1,.462-.132,1,1,0,0,1,.562.191.876.876,0,0,1,.331.949l-1.616,5.914h-.03v.108L47.7,43.967a.915.915,0,0,1-.893.67h-4.12a.909.909,0,0,1-.923-.9V39.37a.909.909,0,0,1,.457-.778Zm-4.592.523-2.635,1.5a2.69,2.69,0,0,0-1.375,2.328v4.368a2.6,2.6,0,0,0,.276,1.159l-1.756,1.712a2.834,2.834,0,0,0-2.213-.161v-.01H28.834V44.232a15.356,15.356,0,0,0,7.327-11.788L43,35.109A8.765,8.765,0,0,1,43.924,35.54Zm-10.684,1H22.582a13.243,13.243,0,0,1-1.034-3.781l.416.259a11.364,11.364,0,0,0,11.893,0l.416-.259A13.243,13.243,0,0,1,33.24,36.538Zm-.953,1.8a13.858,13.858,0,0,1-4.376,4.339,13.856,13.856,0,0,1-4.376-4.339Zm7.628-17.1a.909.909,0,0,1,.923.9v.69a.892.892,0,0,1-.512.8l-1.335.651V21.238ZM25.141,5.037v4.5h1.847v-5.4a.924.924,0,0,1,1.847,0v5.4h1.847v-4.5a6.392,6.392,0,0,1,6.464,6.3v.9H18.677v-.9A6.392,6.392,0,0,1,25.141,5.037Zm-7.387,9H38.068a.9.9,0,1,1,0,1.8H17.754a.9.9,0,1,1,0-1.8Zm-2.77,8.79v-.69a.91.91,0,0,1,.923-.9h.923V24.28L15.5,23.629A.892.892,0,0,1,14.984,22.827Zm3.693-5.19H37.145V24.4A8.022,8.022,0,0,1,33.3,31.23l-.427.264a9.472,9.472,0,0,1-9.916,0l-.427-.264A8.015,8.015,0,0,1,18.677,24.4ZM12.821,35.109l6.84-2.666a15.356,15.356,0,0,0,7.327,11.788v2.206H16.83v-.9A8.189,8.189,0,0,0,9.494,37.5,8.254,8.254,0,0,1,12.821,35.109ZM7.6,42.632a7.89,7.89,0,0,1,.768-3.395H8.52a6.392,6.392,0,0,1,6.464,6.3v8.1H7.6Zm0,0" transform="translate(-5.75 -1.438)"/>
</svg>
