<svg xmlns="http://www.w3.org/2000/svg" width="235" height="86" viewBox="0 0 235 86">
  <defs>
    <style>
      .cls-1, .cls-2 {
        fill: #ff6b00;
      }

      .cls-1 {
        font-size: 58px;
        font-family: Adamina, 'Adamina';
      }

      .cls-3 {
        fill: #231f20;
      }
    </style>
  </defs>
  <g id="logo-header" transform="translate(-375 -34)">
    <text id="OKnov" class="cls-1" transform="translate(375 105)"><tspan x="0" y="0">OKnov</tspan></text>
    <g id="butterfly" transform="translate(544.686 34)">
      <path id="Path_1" data-name="Path 1" class="cls-2" d="M5.41,0C3.582,0,2.863,1.484,2.863,4.207c0,3.3,3.6,5.152,3.57,5.125.027.027-1.238-.465-2.215-.859a4.4,4.4,0,0,0-2.141,2.238s-1.234,2.672,1.5,2.75c2.738,0,4.02-3.754,4.406-5C10.457.551,5.41,0,5.41,0Zm0,0" transform="translate(-1.801)"/>
      <path id="Path_2" data-name="Path 2" class="cls-2" d="M12.328,3.8c-1.488-.41-3.437,3.687-3.859,4.586S6.207,12.621,7.512,13c1.262.211,2.23-2.156,2.363-3.75C12.637,6.484,13,3.98,12.328,3.8Zm0,0" transform="translate(-1.801)"/>
    </g>
    <g id="window" transform="translate(547.906 42.508)">
      <path id="Path_3" data-name="Path 3" class="cls-3" d="M60.777,57.027h-.637V35.391a.906.906,0,0,0-1.812,0V57.027h-3.09V5.8a.9.9,0,0,0-.84-.9h-.027c-.012,0-.027-.008-.035-.008H9.156a.249.249,0,0,1-.035.008H9.086a.48.48,0,0,0-.078.008.042.042,0,0,0-.023,0,.772.772,0,0,0-.1.027H8.875a.447.447,0,0,0-.09.039.042.042,0,0,0-.023.008.777.777,0,0,0-.078.043s-.008,0-.008.008,0,0-.012,0a.649.649,0,0,0-.082.063,0,0,0,0,0,0,0,.365.365,0,0,0-.07.063L8.48,5.2a.558.558,0,0,1-.043.059l-.02.02c-.016.031-.035.055-.051.086a0,0,0,0,0,0,0,.686.686,0,0,0-.043.094s-.008.016-.008.02c-.008.027-.02.055-.027.078s-.008.023-.008.031c0,.023-.008.051-.012.074s-.008.02-.008.031a.919.919,0,0,0,0,.1v51.23H5.164V35.391a.906.906,0,0,0-1.812,0V57.027H2.715A2.016,2.016,0,0,0,.7,59.043v2.434a2.016,2.016,0,0,0,2.016,2.016H60.777a2.016,2.016,0,0,0,2.016-2.016V59.043A2.016,2.016,0,0,0,60.777,57.027ZM53.426,7.23v49.8H52.211l-11.363-4.25V13.2Zm-3.109-.523-10.332,4.9a1.606,1.606,0,0,0-.941,1.434V52.945a1.61,1.61,0,0,0,1.082,1.5l6.93,2.586H16.434l6.93-2.586a1.614,1.614,0,0,0,1.086-1.5V13.039a1.606,1.606,0,0,0-.941-1.434l-10.34-4.9ZM10.059,7.23,22.641,13.2V52.777l-11.367,4.25H10.059ZM60.777,61.688H2.715a.21.21,0,0,1-.211-.211V59.043a.209.209,0,0,1,.211-.207H60.777a.209.209,0,0,1,.211.207v2.434A.21.21,0,0,1,60.777,61.688Zm0,0" transform="translate(-0.699)"/>
      <path id="Path_4" data-name="Path 4" class="cls-3" d="M57.8,0H5.7A2.344,2.344,0,0,0,3.352,2.336V31.043a.906.906,0,0,0,1.813,0V2.336A.532.532,0,0,1,5.7,1.8H57.8a.532.532,0,0,1,.531.531V31.09a.906.906,0,0,0,1.813,0V2.336A2.344,2.344,0,0,0,57.8,0Zm0,0" transform="translate(-0.699)"/>
      <path id="Path_5" data-name="Path 5" class="cls-3" d="M50.484,11.539a1.119,1.119,0,0,0-.488.113L43.684,14.8a1.046,1.046,0,0,0-.578.934V30.883a1.09,1.09,0,0,0,1.1,1.066l6.3.039h0a1.078,1.078,0,0,0,1.09-1.055V12.613A1.1,1.1,0,0,0,50.484,11.539ZM49.793,30.18l-4.883-.035V16.215l4.883-2.441Zm0,0" transform="translate(-0.699)"/>
      <path id="Path_6" data-name="Path 6" class="cls-3" d="M50.5,33.266l-6.3.063a1.091,1.091,0,0,0-1.09,1.066V50.313a1.043,1.043,0,0,0,.664.969l6.309,2.5a1.046,1.046,0,0,0,.406.078A1.1,1.1,0,0,0,51.6,52.781V34.32A1.079,1.079,0,0,0,50.5,33.266Zm-.707,18.461L44.91,49.785V35.129l4.883-.051Zm0,0" transform="translate(-0.699)"/>
      <path id="Path_7" data-name="Path 7" class="cls-3" d="M19.289,33.328l-6.313-.062a1.07,1.07,0,0,0-1.086,1.055V52.781A1.1,1.1,0,0,0,13,53.863a1.02,1.02,0,0,0,.406-.078l6.313-2.5a1.042,1.042,0,0,0,.668-.969V34.395A1.092,1.092,0,0,0,19.289,33.328Zm-.711,16.457L13.7,51.727V35.078l4.883.051Zm0,0" transform="translate(-0.699)"/>
      <path id="Path_8" data-name="Path 8" class="cls-3" d="M19.8,14.8l-6.309-3.152a1.113,1.113,0,0,0-1.6.961v18.32a1.072,1.072,0,0,0,1.086,1.055h.008l6.3-.039a1.09,1.09,0,0,0,1.1-1.066V15.738A1.033,1.033,0,0,0,19.8,14.8Zm-1.223,15.34L13.7,30.18V13.773l4.883,2.441Zm0,0" transform="translate(-0.699)"/>
    </g>
  </g>
</svg>
