<svg xmlns="http://www.w3.org/2000/svg" width="39.385" height="30" viewBox="0 0 39.385 30">
  <defs>
    <style>
      .cls-1 {
        opacity: 0.8;
      }

      .cls-2 {
        fill: #231f20;
      }
    </style>
  </defs>
  <g id="mail" class="cls-1" transform="translate(0 -3.574)">
    <path id="Path_35" data-name="Path 35" class="cls-2" d="M35.923,3.574H3.462A3.467,3.467,0,0,0,0,7.036V30.113a3.467,3.467,0,0,0,3.462,3.462H35.923a3.467,3.467,0,0,0,3.462-3.462V7.036A3.467,3.467,0,0,0,35.923,3.574Zm-.477,2.308L19.764,21.559,3.949,5.882ZM2.308,29.636V7.5l11.113,11.02Zm1.631,1.631L15.062,20.143l3.9,3.867A1.15,1.15,0,0,0,20.585,24l3.8-3.8L35.446,31.267Zm33.138-1.631L26.015,18.574,37.077,7.513Zm0,0" transform="translate(0 0)"/>
  </g>
</svg>
