<svg xmlns="http://www.w3.org/2000/svg" width="198" height="36" viewBox="0 0 198 36">
  <defs>
    <style>
      .cls-1 {
        fill: #fff;
      }

      .cls-2 {
        fill: #c1c1c1;
      }

      .cls-3 {
        fill: #f5f5f5;
        stroke: #231f20;
        stroke-linecap: round;
        stroke-linejoin: round;
        stroke-width: 2px;
        opacity: 0.8;
      }
    </style>
  </defs>
  <g id="Group_1" data-name="Group 1" transform="translate(-1106 -30)">
    <rect id="back" class="cls-1" width="192" height="36" rx="18" transform="translate(1106 30)"/>
    <path id="header-phone" class="cls-2" d="M18,0A18,18,0,1,1,0,18,18,18,0,0,1,18,0Z" transform="translate(1268 30)"/>
    <path id="header-phone-icon" class="cls-3" d="M23.127,1.153,18.253.028a1.132,1.132,0,0,0-1.289.652l-2.25,5.25a1.122,1.122,0,0,0,.323,1.312l2.841,2.325a17.372,17.372,0,0,1-8.306,8.306L7.246,15.032a1.124,1.124,0,0,0-1.312-.323l-5.25,2.25a1.138,1.138,0,0,0-.656,1.294l1.125,4.875A1.125,1.125,0,0,0,2.25,24,21.747,21.747,0,0,0,24,2.25,1.124,1.124,0,0,0,23.127,1.153Z" transform="translate(1274 36)"/>
  </g>
</svg>
